<?xml version="1.0" encoding="UTF-8"?>
<?xml-stylesheet type="text/css" href="../../assets/stylesheets/pages/_game.scss"?>
<svg version="1.1" viewBox="0 0 219 374" xmlns="http://www.w3.org/2000/svg">
  <desc>Created with Sketch.</desc>
  <g fill="none" fill-rule="evenodd">
    <g id="test" transform="translate(-65 -278)">
    <path d="m80.383 278h188.23c5.3491 0 7.2888 0.55695 9.2444 1.6028 1.9556 1.0458 3.4903 2.5806 4.5361 4.5361 1.0458 1.9556 1.6028 3.8953 1.6028 9.2444v343.23c0 5.3491-0.55695 7.2888-1.6028 9.2444-1.0458 1.9556-2.5806 3.4903-4.5361 4.5361-1.9556 1.0458-3.8953 1.6028-9.2444 1.6028h-188.23c-5.3491 0-7.2888-0.55695-9.2444-1.6028-1.9556-1.0458-3.4903-2.5806-4.5361-4.5361-1.0458-1.9556-1.6028-3.8953-1.6028-9.2444v-343.23c0-5.3491 0.55695-7.2888 1.6028-9.2444 1.0458-1.9556 2.5806-3.4903 4.5361-4.5361 1.9556-1.0458 3.8953-1.6028 9.2444-1.6028zm8.3083 17c-2.6746 0-3.6444 0.27848-4.6222 0.8014s-1.7451 1.2903-2.2681 2.2681-0.8014 1.9476-0.8014 4.6222v287.62c0 2.6746 0.27848 3.6444 0.8014 4.6222s1.2903 1.7451 2.2681 2.2681 1.9476 0.8014 4.6222 0.8014h170.62c2.6746 0 3.6444-0.27848 4.6222-0.8014s1.7451-1.2903 2.2681-2.2681 0.8014-1.9476 0.8014-4.6222v-287.62c0-2.6746-0.27848-3.6444-0.8014-4.6222s-1.2903-1.7451-2.2681-2.2681-1.9476-0.8014-4.6222-0.8014h-170.62zm85.308 347c8.8366 0 16-7.1634 16-16s-7.1634-16-16-16-16 7.1634-16 16 7.1634 16 16 16z"/>
    </g>
  </g>
</svg>